# xmcd
# 
# Track frame offsets:
#     150
#     17287
#     33037
#     45487
#     55987
#     74062
#     90337
#     103312
#     115462
#     126487
#     139162
#     152062
# 
# Disc length: 2211
# 
# Revision: 1
# Processed by: cddbd v1.5.2PL0 Copyright (c) Steve Scherf et al.
# Submitted via: BonkEnc v1.0.8
# 
DISCID=a208a10c
DTITLE=Quincy Jones - Quincy Plays For Pussycats
DYEAR=1966
DGENRE=Big Band
TTITLE0=Blues For Trumpet and Koto
TTITLE1=(I Can't Get No) Satisfaction
TTITLE2=What's New Pussycat
TTITLE3=The Gentle Rain From The Movie "The Gentle Rain"
TTITLE4=Blues In The Night
TTITLE5=After Hours
TTITLE6=A Walk In The Black Forest
TTITLE7=Non-stop To Brazil From The Movie "The Gentle Rain"
TTITLE8=The Hucklebuck
TTITLE9=Soul Bossa Nova
TTITLE10=Sermonetts
TTITLE11=The "In" Crowd
EXTD=YEAR: 1966
EXTT0=
EXTT1=
EXTT2=
EXTT3=
EXTT4=
EXTT5=
EXTT6=
EXTT7=
EXTT8=
EXTT9=
EXTT10=
EXTT11=
PLAYORDER=
